<svg width="700" height="700" viewBox="0 0 700 700" fill="none" xmlns="http://www.w3.org/2000/svg">
<path fill-rule="evenodd" clip-rule="evenodd" d="M700 0H0V700H700V0ZM360.741 501.068V353.486H508.905V289.972H360.741V243.967H360.704V203.151H524.917V139.636H283.668V502.893C283.496 513.858 281.76 523.152 278.461 530.775C274.98 538.817 269.879 544.938 263.157 549.139C256.556 553.22 248.454 555.26 238.852 555.26C229.73 555.26 221.808 553.46 215.086 549.859C208.484 546.138 203.263 540.857 199.422 534.015C195.701 527.054 193.721 518.712 193.481 508.99H115.883C115.763 533.475 120.984 553.82 131.546 570.024C142.109 586.108 156.392 598.111 174.396 606.032C192.521 613.834 212.686 617.735 234.891 617.735C259.857 617.735 281.762 612.994 300.606 603.512C319.451 594.03 334.154 580.526 344.717 563.002C355.399 545.478 360.741 524.833 360.741 501.068Z" fill="#D9D9D9"/>
</svg>
