<svg width="512" height="743" viewBox="0 0 512 743" fill="none" xmlns="http://www.w3.org/2000/svg">
<path fill-rule="evenodd" clip-rule="evenodd" d="M512 0H0V743H512V0ZM214.669 495V130.636H455.917V194.151H291.704V241.273H291.741V280.972H439.905V344.486H291.741V498.374C291.741 522.14 286.4 542.785 275.717 560.309C265.155 577.833 250.451 591.336 231.607 600.818C212.762 610.301 190.857 615.042 165.891 615.042C143.686 615.042 123.521 611.141 105.397 603.339C87.3926 595.417 73.1092 583.414 62.5467 567.33C51.9842 551.127 46.763 530.782 46.883 506.296H124.481C124.721 516.018 126.702 524.36 130.423 531.322C134.264 538.164 139.485 543.445 146.087 547.166C152.808 550.767 160.73 552.567 169.852 552.567C179.454 552.567 187.556 550.526 194.158 546.446C200.88 542.245 205.981 536.123 209.462 528.081C212.942 520.039 214.683 510.137 214.683 498.374V495H214.669Z" fill="#D9D9D9"/>
</svg>
