<svg width="100" height="100" viewBox="0 0 100 100" fill="none" xmlns="http://www.w3.org/2000/svg">
<path fill-rule="evenodd" clip-rule="evenodd" d="M25.2868 67.429C23.3342 69.3816 23.3342 72.5474 25.2868 74.5C27.2394 76.4526 30.4053 76.4526 32.3579 74.5L49.7513 57.1066L67.6421 74.9975C69.5948 76.9501 72.7606 76.9501 74.7132 74.9975C76.6658 73.0449 76.6658 69.8791 74.7132 67.9264L56.8223 50.0356L74.7843 32.0736C76.7369 30.121 76.7369 26.9552 74.7843 25.0026C72.8317 23.0499 69.6658 23.0499 67.7132 25.0026L49.7513 42.9645L32.2868 25.5C30.3342 23.5474 27.1684 23.5474 25.2157 25.5C23.2631 27.4526 23.2631 30.6185 25.2157 32.5711L42.6802 50.0356L25.2868 67.429Z" fill="white"/>
</svg>
