<svg width="100" height="100" viewBox="0 0 100 100" fill="none" xmlns="http://www.w3.org/2000/svg">
<path fill-rule="evenodd" clip-rule="evenodd" d="M20 30C20 27.2386 22.2386 25 25 25H75C77.7614 25 80 27.2386 80 30C80 32.7614 77.7614 35 75 35H25C22.2386 35 20 32.7614 20 30ZM20 50C20 47.2386 22.2386 45 25 45H75C77.7614 45 80 47.2386 80 50C80 52.7614 77.7614 55 75 55H25C22.2386 55 20 52.7614 20 50ZM25 65C22.2386 65 20 67.2386 20 70C20 72.7614 22.2386 75 25 75H75C77.7614 75 80 72.7614 80 70C80 67.2386 77.7614 65 75 65H25Z" fill="white"/>
</svg>
